<?xml version="1.0" encoding="UTF-8"?>
<svg width="213px" height="35px" viewBox="0 0 213 35" version="1.1" xmlns="http://www.w3.org/2000/svg" xmlns:xlink="http://www.w3.org/1999/xlink">
    <!-- Generator: Sketch 52.5 (67469) - http://www.bohemiancoding.com/sketch -->
    <title>hsl</title>
    <desc>Created with Sketch.</desc>
    <defs>
        <polygon id="path-1" points="0 25 36 25 36 0 0 0"></polygon>
    </defs>
    <g id="hsl" stroke="none" stroke-width="1" fill="none" fill-rule="evenodd">
        <g id="Haskell-Logo" transform="translate(20.000000, 5.000000)">
            <mask id="mask-2" fill="white">
                <use xlink:href="#path-1"></use>
            </mask>
            <g id="Shape"></g>
            <g id="Group" mask="url(#mask-2)" fill-rule="nonzero">
                <polygon id="Shape" fill="#433B5F" points="0 25 8.47058824 12.5 0 0 6.35294118 0 14.8235294 12.5 6.35294118 25"></polygon>
                <polygon id="Shape" fill="#63578E" points="8.47058824 25 16.9411765 12.5 8.47058824 0 14.8235294 0 31.7647059 25 25.4117647 25 20.1176471 17.1875 14.8235294 25"></polygon>
                <polygon id="Shape" fill="#875288" points="28.9411765 17.7083333 26.117647 13.5416667 36 13.5416667 36 17.7083333"></polygon>
                <polygon id="Shape" fill="#875288" points="24.7058824 11.4583333 21.8823529 7.29166667 36 7.29166667 36 11.4583333"></polygon>
            </g>
        </g>
        <path d="M71.37,28 L71.37,8.32 L73.89,8.32 L73.89,16.57 L82.11,16.57 L82.11,8.32 L84.63,8.32 L84.63,28 L82.11,28 L82.11,18.73 L73.89,18.73 L73.89,28 L71.37,28 Z M94.38,28.36 C91.65,28.36 89.43,26.83 89.43,24.22 C89.43,20.95 92.46,19.36 99.99,18.76 C99.93,16.78 98.94,15.1 96.12,15.1 C94.23,15.1 92.37,16 91.02,16.84 L90.06,15.16 C91.53,14.2 93.99,13.06 96.54,13.06 C100.53,13.06 102.45,15.43 102.45,19.06 L102.45,28 L100.44,28 L100.23,26.02 L100.14,26.02 C98.52,27.28 96.45,28.36 94.38,28.36 Z M95.04,26.38 C96.69,26.38 98.34,25.6 99.99,24.22 L99.99,20.38 C93.75,20.89 91.83,22.12 91.83,24.04 C91.83,25.69 93.36,26.38 95.04,26.38 Z M114.3,28.36 C111.45,28.36 108.9,27.31 107.13,26.08 L108.27,24.46 C109.95,25.66 111.9,26.44 114.6,26.44 C117.06,26.44 118.29,25.39 118.29,24.16 C118.29,23.05 117.69,22.27 113.73,21.46 C109.95,20.68 108.03,19.39 108.03,17.2 C108.03,14.86 110.1,13.06 114.09,13.06 C116.31,13.06 118.53,13.93 119.97,14.92 L118.77,16.51 C117.42,15.58 115.74,14.98 113.88,14.98 C111.39,14.98 110.52,15.97 110.52,17.08 C110.52,18.34 111.78,18.88 114.75,19.51 C119.61,20.56 120.78,21.79 120.78,24.01 C120.78,26.38 118.47,28.36 114.3,28.36 Z M126.18,28 L126.18,6.64 L128.64,6.64 L128.64,21.1 L128.76,21.1 L136.62,13.42 L139.44,13.42 L133.62,19.15 L140.22,28 L137.46,28 L132.09,20.65 L128.64,24.04 L128.64,28 L126.18,28 Z M150.9,28.36 C146.52,28.36 143.04,25.54 143.04,20.68 C143.04,15.94 146.58,13.06 150.48,13.06 C154.68,13.06 157.14,15.79 157.14,19.9 C157.14,20.47 157.08,21.01 157.02,21.4 L145.53,21.4 C145.83,24.7 148.17,26.38 151.2,26.38 C152.94,26.38 154.32,25.84 155.64,25 L156.54,26.62 C155.1,27.58 153.24,28.36 150.9,28.36 Z M150.54,15.01 C148.14,15.01 146.04,16.6 145.59,19.48 L154.89,19.48 C154.68,16.48 153.03,15.01 150.54,15.01 Z M171.21,28.36 C168.12,28.36 166.41,26.56 166.41,23.11 L166.41,8.65 L161.22,8.65 L161.22,6.64 L168.87,6.64 L168.87,23.29 C168.87,25.42 170.01,26.32 171.75,26.32 C172.59,26.32 173.49,26.11 174.48,25.66 L175.11,27.49 C173.76,28.06 172.8,28.36 171.21,28.36 Z M189.21,28.36 C186.12,28.36 184.41,26.56 184.41,23.11 L184.41,8.65 L179.22,8.65 L179.22,6.64 L186.87,6.64 L186.87,23.29 C186.87,25.42 188.01,26.32 189.75,26.32 C190.59,26.32 191.49,26.11 192.48,25.66 L193.11,27.49 C191.76,28.06 190.8,28.36 189.21,28.36 Z" id="Haskell" fill="#000000"></path>
    </g>
</svg>