<?xml version="1.0" encoding="UTF-8"?>
<svg width="167px" height="35px" viewBox="0 0 167 35" version="1.1" xmlns="http://www.w3.org/2000/svg" xmlns:xlink="http://www.w3.org/1999/xlink">
    <!-- Generator: Sketch 50 (54983) - http://www.bohemiancoding.com/sketch -->
    <title>reactl</title>
    <desc>Created with Sketch.</desc>
    <defs></defs>
    <g id="reactl" stroke="none" stroke-width="1" fill="none" fill-rule="evenodd">
        <text id="React" font-family="HelveticaNeue, Helvetica Neue" font-size="30" font-weight="normal" fill="#4A4A4A">
            <tspan x="69" y="28">React</tspan>
        </text>
        <g id="r" transform="translate(20.000000, 1.000000)" fill="#61DAFB" fill-rule="nonzero">
            <path d="M29.5993565,10.3718239 C29.2161809,10.2404678 28.8298748,10.1188591 28.4404383,10.006998 C28.5049983,9.74490085 28.5646904,9.4816674 28.6195148,9.21729761 C29.4967409,4.96286124 28.923167,1.5355148 26.9644696,0.407275378 C25.0865217,-0.674848669 22.0150957,0.453437664 18.9130852,3.15033474 C18.6074191,3.41669571 18.3086348,3.69063573 18.0167322,3.97215478 C17.82132,3.78501404 17.6224852,3.60153251 17.4202278,3.42171018 C14.16924,0.537833957 10.9105983,-0.677303777 8.9539513,0.454266459 C7.07777217,1.53936166 6.52204174,4.76154238 7.31181913,8.79343963 C7.39039304,9.19272047 7.4790887,9.58980682 7.57790609,9.9846987 C7.11682435,10.1155388 6.67152,10.2549795 6.24548348,10.4033337 C2.43413217,11.7308591 0,13.8116022 0,15.9696891 C0,18.1987708 2.61289565,20.4345454 6.58291304,21.7900153 C6.90482609,21.8994161 7.2293113,22.0007584 7.5563687,22.0940421 C7.45015304,22.5193856 7.35588522,22.9474085 7.27356522,23.3781105 C6.52060174,27.3399668 7.10866957,30.4857421 8.97991826,31.56416 C10.9126643,32.6775593 14.1564835,31.5331193 17.3152174,28.77461 C17.56488,28.5565484 17.8152835,28.3259559 18.0664278,28.0828324 C18.3824974,28.3875056 18.7068783,28.6831976 19.0395704,28.9699083 C22.0992104,31.6002673 25.1209252,32.6624533 26.990593,31.5811737 C28.9215861,30.4643967 29.5490035,27.084964 28.7342452,22.9732992 C28.6721061,22.6592538 28.6001478,22.3387814 28.5183704,22.011882 C28.7462035,21.9447131 28.9693617,21.8750996 29.1878452,21.8030414 C33.3149322,20.43711 36,18.2285449 36,15.9697048 C36,13.8037991 33.4874817,11.7090602 29.5993565,10.3718239 Z M19.922713,4.30948975 C22.5805461,1.99854504 25.0645461,1.08619875 26.1963704,1.73833487 C27.401807,2.43297406 27.8706991,5.23397084 27.1132748,8.90726594 C27.0636261,9.14655297 27.0096678,9.38489131 26.9514,9.62228097 C25.3654527,9.26317834 23.7574471,9.00937704 22.1379339,8.86254232 C21.2100994,7.53083614 20.1934385,6.26315253 19.0948696,5.06811813 C19.3644835,4.80842921 19.6404313,4.55555309 19.922713,4.30948975 Z M10.6295635,17.8132563 C10.9551287,18.4415242 11.2953391,19.0618846 11.6501948,19.6743377 C12.0121983,20.2989151 12.3889461,20.9146051 12.7804383,21.5214077 C11.6661233,21.400608 10.5587509,21.2227304 9.46269391,20.9884772 C9.78052696,19.9630552 10.1721443,18.8972412 10.6295635,17.8132563 Z M10.6278261,14.1996657 C10.1799704,13.1384492 9.79680522,12.0950595 9.48388696,11.0874801 C10.5110452,10.8577945 11.6063217,10.6701273 12.7476157,10.5276529 C12.3655878,11.1229254 11.9977096,11.7269393 11.6439809,12.3396946 C11.2908157,12.9516577 10.9520974,13.571648 10.6278261,14.1996657 Z M11.4453078,16.0066252 C11.9191617,15.0212772 12.4295791,14.0547674 12.97656,13.1070957 L12.97656,13.1074085 C13.5230191,12.1602163 14.1048678,11.2347709 14.7221061,10.3310722 C15.7927148,10.25021 16.8904957,10.2078633 18.0001722,10.2078633 C19.1147948,10.2078633 20.2139687,10.2505228 21.2842957,10.3320261 C21.8948765,11.2336606 22.4730574,12.1559733 23.0188383,13.0989641 C23.5673426,14.0438419 24.0846626,15.0057908 24.5707983,15.9848107 C24.0899322,16.9732862 23.5743078,17.9437211 23.0239252,18.8961153 L23.0237687,18.8961153 C22.4784365,19.8425673 21.9027496,20.7705564 21.2967078,21.6800827 C20.2286035,21.7563318 19.1248122,21.7956448 18,21.7956448 C16.8798052,21.7956448 15.7900226,21.7607885 14.7405757,21.6928274 C14.1191322,20.7858969 13.5326661,19.8564744 12.9811774,18.9045597 C12.4326835,17.9583475 11.9207217,16.9923693 11.4452922,16.0066252 L11.4453078,16.0066252 Z M24.3560504,19.6636728 C24.7181374,19.0362702 25.0661374,18.401054 25.4000504,17.7580242 C25.8575761,18.7910449 26.2611003,19.8471051 26.608993,20.9219391 C25.5003199,21.1708539 24.3793916,21.3617522 23.2507878,21.4938542 C23.6313235,20.8911799 23.9997391,20.2811194 24.3560348,19.6636728 L24.3560504,19.6636728 Z M25.385447,14.200776 C25.0527548,13.5700582 24.7075565,12.9462001 24.3498522,12.3292018 C23.9979183,11.721857 23.6330139,11.1222998 23.2551391,10.5305302 C24.4038522,10.6753816 25.5043565,10.8679746 26.5376661,11.1037119 C26.20595,12.154764 25.8213832,13.1884318 25.3854313,14.200776 L25.385447,14.200776 Z M18.0172174,6.16689626 C18.7660069,6.98240439 19.4730819,7.83518433 20.1357391,8.72197566 C18.718247,8.65505702 17.2999513,8.65473906 15.8808522,8.72102176 C16.5803478,7.79955873 17.2967478,6.94350791 18.0172174,6.16689626 Z M9.72444522,1.78401239 C10.928927,1.0874654 13.5920191,2.08070516 16.3989704,4.57063819 C16.57836,4.72981363 16.7585635,4.89646386 16.93908,5.0688531 C15.8341495,6.26365512 14.8096874,7.53030026 13.8724278,8.86046251 C12.2566901,9.00524478 10.652032,9.2544044 9.06852522,9.6063775 C8.97669913,9.23912253 8.89422261,8.86973042 8.82109565,8.49820116 L8.82109565,8.49835754 C8.14443652,5.0437547 8.59373217,2.43796247 9.72444522,1.78401239 Z M7.96902261,20.6140967 C7.67058783,20.5287465 7.37435478,20.436104 7.08032348,20.3361691 C5.55577315,19.8569405 4.13249254,19.1015514 2.88156522,18.1077285 C2.15716637,17.6111927 1.67076622,16.8372666 1.53784174,15.9696891 C1.53784174,14.6601626 3.49225043,12.9896102 6.75184696,11.8542087 C7.16097391,11.7123233 7.57399304,11.5824893 7.99090435,11.4647066 C8.47490096,13.0158258 9.06104968,14.5332665 9.74551304,16.0070943 C9.05245596,17.5020048 8.45900043,19.041023 7.96902261,20.6140967 Z M16.3032104,27.6176755 C15.1260666,28.6977548 13.7600067,29.5521649 12.2732922,30.1382114 L12.2731357,30.1382114 C11.4808259,30.517066 10.5669023,30.5514083 9.74834609,30.2330849 C8.61268696,29.5788689 8.14077391,27.0527661 8.78459478,23.6647326 C8.86115478,23.2643363 8.94880696,22.8662908 9.0475513,22.4705962 C10.6469361,22.8138339 12.2677892,23.0482539 13.8989426,23.1722411 C14.8442958,24.5099691 15.8765935,25.7842035 16.989167,26.9867127 C16.7656643,27.2025954 16.5370122,27.4129163 16.3032104,27.6176755 Z M18.0597443,25.8810697 C17.3308383,25.0952318 16.6038574,24.2261236 15.8937496,23.2912904 C16.5829774,23.3183956 17.2850609,23.3319795 18,23.332042 C18.7338365,23.332042 19.4582243,23.3159666 20.1731635,23.2838156 C19.5135684,24.1850625 18.8081699,25.0519406 18.0597443,25.8810384 L18.0597443,25.8810697 Z M27.3986296,28.0187338 C27.3314862,28.893728 26.9048525,29.7019372 26.2200209,30.2514747 C25.085473,30.9075984 22.6591513,30.0547377 20.0427496,27.8052645 C19.7427496,27.5474 19.4409913,27.2725582 19.1374748,26.9807391 C20.2284702,25.7740519 21.2366262,24.4951095 22.1550574,23.1526471 C23.795621,23.014365 25.4247203,22.7634977 27.0308191,22.4018219 C27.104113,22.6978944 27.1690643,22.9879099 27.225673,23.2718684 C27.5743977,24.8301577 27.6330268,26.4392688 27.3986296,28.0187651 L27.3986296,28.0187338 Z M28.704287,20.3447385 L28.7041304,20.3447385 C28.507367,20.409838 28.3053443,20.4727169 28.0995026,20.5336724 C27.5960936,18.9752886 26.9870249,17.4529711 26.2765252,15.977289 C26.9601475,14.5213447 27.5454796,13.0213261 28.0285983,11.4872874 C28.3968,11.593936 28.7543113,11.7062142 29.0987687,11.8247318 C32.4302087,12.9703133 34.4622209,14.6644161 34.4622209,15.9696578 C34.4622209,17.3600934 32.2675513,19.1651295 28.704287,20.3447698 L28.704287,20.3447385 Z" id="Shape"></path>
            <path d="M18.4998636,13 C19.9154763,12.9999655 21.1917162,13.8526881 21.7334637,15.1605371 C22.2752111,16.468386 21.9757757,17.9737971 20.9747864,18.9747864 C19.9737971,19.9757757 18.468386,20.2752111 17.1605371,19.7334637 C15.8526881,19.1917162 14.9999655,17.9154763 15,16.4998636 C15,15.5716421 15.3687346,14.6814381 16.0250863,14.0250863 C16.6814381,13.3687346 17.5716421,13 18.4998636,13" id="Shape"></path>
        </g>
    </g>
</svg>