<?xml version="1.0" encoding="UTF-8"?>
<svg width="106px" height="34px" viewBox="0 0 106 34" version="1.1" xmlns="http://www.w3.org/2000/svg" xmlns:xlink="http://www.w3.org/1999/xlink">
    <!-- Generator: Sketch 50 (54983) - http://www.bohemiancoding.com/sketch -->
    <title>Artboard</title>
    <desc>Created with Sketch.</desc>
    <defs>
        <radialGradient cx="50.0014518%" cy="50.0043193%" fx="50.0014518%" fy="50.0043193%" r="50.0073042%" id="radialGradient-1">
            <stop stop-color="#7D7D7D" offset="0%"></stop>
            <stop stop-color="#7E7C7A" offset="26.7%"></stop>
            <stop stop-color="#817871" offset="45%"></stop>
            <stop stop-color="#867162" offset="60.8%"></stop>
            <stop stop-color="#8D684C" offset="75.3%"></stop>
            <stop stop-color="#965C30" offset="88.6%"></stop>
            <stop stop-color="#A04F12" offset="100%"></stop>
        </radialGradient>
    </defs>
    <g id="Artboard" stroke="none" stroke-width="1" fill="none" fill-rule="evenodd">
        <g id="rust" transform="translate(20.000000, 0.000000)" fill="#000000" fill-rule="nonzero">
            <g id="text3388" transform="translate(36.000000, 10.000000)">
                <path d="M0.178637681,9.27243143 L0.178637681,3.31493643 L3.30748993,3.31493643 L3.30748993,4.29043286 C3.30748993,4.81882667 3.30459372,5.48367381 3.29880131,6.28497429 C3.2930089,7.0804681 3.29011269,7.61176524 3.29011269,7.87886571 C3.29011269,8.66274667 3.31039326,9.22888286 3.35095439,9.57727429 C3.39151553,9.91985905 3.46104561,10.1695395 3.55954464,10.3263157 C3.68701618,10.5295443 3.85215003,10.6863205 4.0549462,10.7966443 C4.26353621,10.9069686 4.50109706,10.9621307 4.76762877,10.9621307 C5.41657604,10.9621307 5.92646314,10.71245 6.29729009,10.2130886 C6.66811703,9.71372762 6.8535305,9.01984786 6.8535305,8.13144929 L6.8535305,3.31493643 L9.96500052,3.31493643 L9.96500052,13.0698993 L6.8535305,13.0698993 L6.8535305,11.6589136 C6.38420263,12.2279531 5.88590391,12.6489262 5.35863434,12.9218329 C4.83715909,13.1889333 4.26063905,13.3224836 3.62907424,13.3224836 C2.50500527,13.3224836 1.64746799,12.9769952 1.05646241,12.2860186 C0.471251152,11.5950419 0.178645521,10.5905129 0.178645521,9.27243143 L0.178637681,9.27243143 Z" id="path5577"></path>
                <path d="M20.5770186,3.61977857 L20.5770186,5.98884143 C19.9106889,5.7101281 19.2675359,5.5010931 18.6475597,5.36173643 C18.0275831,5.22237976 17.4423716,5.15270143 16.8919252,5.15270143 C16.3009201,5.15270143 15.8605631,5.22818643 15.5708542,5.37915643 C15.28694,5.52431929 15.1449829,5.75077357 15.1449829,6.05851929 C15.1449829,6.30820024 15.2521751,6.49981571 15.4665594,6.63336571 C15.686738,6.76691571 16.0778446,6.86562667 16.6398791,6.92949857 L17.187428,7.00788643 C18.7808254,7.211115 19.8527472,7.54499024 20.4031935,8.00951214 C20.9536399,8.47403405 21.228863,9.2027531 21.228863,10.1956693 C21.228863,11.2350374 20.8464477,12.016015 20.0816171,12.5386021 C19.3167864,13.0611898 18.1753345,13.3224836 16.6572613,13.3224836 C16.0141084,13.3224836 15.3477786,13.2702248 14.6582721,13.1657071 C13.9745599,13.0669962 13.2705681,12.9160264 12.5462967,12.7127979 L12.5462967,10.3437357 C13.1662734,10.6456748 13.8007353,10.8721293 14.4496826,11.0230993 C15.1044237,11.1740688 15.7678563,11.2495536 16.4399803,11.2495536 C17.0483683,11.2495536 17.5061078,11.165359 17.8131988,10.99697 C18.1202897,10.8285805 18.2738352,10.5788998 18.2738352,10.2479279 C18.2738352,9.96921452 18.166643,9.76308286 17.9522587,9.62953286 C17.7436687,9.49017619 17.3235913,9.38275548 16.6920265,9.30727071 L16.1444775,9.23759214 C14.7596707,9.06339643 13.7891469,8.74113429 13.2329063,8.27080571 C12.6766656,7.80047714 12.3985453,7.08627452 12.3985453,6.12819786 C12.3985453,5.09463643 12.7519898,4.328175 13.4588787,3.82881357 C14.1657677,3.32945262 15.2492779,3.07977214 16.7094094,3.07977214 C17.283032,3.07977214 17.8856258,3.12332095 18.5171906,3.21041857 C19.1487554,3.29751667 19.8353647,3.43397 20.5770186,3.61977857 Z" id="path5579"></path>
                <path d="M26.9737866,0.545223571 L26.9737866,3.31493643 L30.1808556,3.31493643 L30.1808556,5.54464214 L26.9737866,5.54464214 L26.9737866,9.68179143 C26.9737866,10.1347005 27.0635951,10.4424464 27.2432121,10.6050293 C27.4228291,10.7618055 27.7791717,10.8401936 28.3122399,10.8401936 L29.9114301,10.8401936 L29.9114301,13.0698993 L27.2432121,13.0698993 C26.0148455,13.0698993 25.1428227,12.8144121 24.6271437,12.3034379 C24.1172566,11.7866574 23.862313,10.9127752 23.862313,9.68179143 L23.862313,5.54464214 L22.3152695,5.54464214 L22.3152695,3.31493643 L23.862313,3.31493643 L23.862313,0.545223571 L26.9737866,0.545223571 Z" id="path5581"></path>
            </g>
        </g>
        <g id="download" transform="translate(20.000000, 0.000000)" fill="url(#radialGradient-1)" fill-rule="nonzero">
            <path d="M15.9361563,4.00595239 C15.9361563,3.59724038 16.1823344,3.22877278 16.5598983,3.07236546 C16.9374621,2.91595814 17.3720569,3.00241285 17.6610317,3.29141589 C17.9500066,3.58041893 18.0364529,4.0150561 17.8800608,4.39265676 C17.7236687,4.77025743 17.3552371,5.01645961 16.9465649,5.01645961 C16.3885316,5.01645961 15.9361563,4.56404012 15.9361563,4.00595239 Z M3.88411834,13.1563867 C3.88411834,12.598299 4.33649371,12.1458795 4.894527,12.1458795 C5.4525603,12.1458795 5.90493566,12.598299 5.90493566,13.1563867 C5.90493566,13.7144745 5.4525603,14.1668939 4.894527,14.1668939 C4.62654997,14.1668939 4.36954857,14.0604301 4.18006019,13.8709232 C3.99057181,13.6814164 3.88411834,13.4243899 3.88411834,13.1563867 Z M27.9979097,13.2037543 C27.9979097,12.6456665 28.450285,12.193247 29.0083183,12.193247 C29.5663516,12.193247 30.018727,12.6456665 30.018727,13.2037543 C30.018727,13.761842 29.5663516,14.2142615 29.0083183,14.2142615 C28.450285,14.2142615 27.9979097,13.761842 27.9979097,13.2037543 Z M6.80483088,14.5883435 C7.26856535,14.3813968 7.47803518,13.838676 7.2736022,13.3737915 L6.82547625,12.3596407 L8.58883367,12.3596407 L8.58883367,20.3088831 L5.03054355,20.3088831 C4.59131695,18.7662934 4.45440796,17.1533317 4.62735164,15.5587705 L6.80483088,14.5883435 Z M14.1812999,14.7838863 L14.1812999,12.4410156 L18.3808109,12.4410156 C18.5981945,12.4410156 19.9122115,12.6912133 19.9122115,13.6750004 C19.9122115,14.4911793 18.9042317,14.7838863 18.0747736,14.7838863 L14.1812999,14.7838863 Z M8.44795939,27.3994374 C8.44795939,26.8413496 8.90033475,26.3889301 9.45836805,26.3889301 C10.0164013,26.3889301 10.4687767,26.8413496 10.4687767,27.3994374 C10.4687767,27.9575251 10.0164013,28.4099446 9.45836805,28.4099446 C9.19039101,28.4099446 8.93338961,28.3034807 8.74390123,28.1139739 C8.55441285,27.924467 8.44795939,27.6674405 8.44795939,27.3994374 Z M23.4231387,27.4468049 C23.4231387,26.8887172 23.8755141,26.4362977 24.4335474,26.4362977 C24.9915807,26.4362977 25.443956,26.8887172 25.443956,27.4468049 C25.443956,28.0048926 24.9915807,28.4573121 24.4335474,28.4573121 C24.1655703,28.4573121 23.9085689,28.3508483 23.7190806,28.1613414 C23.5295922,27.9718345 23.4231387,27.7148081 23.4231387,27.4468049 Z M23.7352481,25.1549454 C23.2376271,25.0492223 22.7484484,25.3666759 22.642258,25.8642437 L22.1346248,28.2314054 C18.833329,29.7270168 15.0440838,29.7088337 11.7572906,28.1816088 L11.2508719,25.8144471 C11.1998949,25.5755545 11.0560763,25.3667164 10.8510801,25.2339114 C10.6460839,25.1011065 10.3967172,25.0552231 10.1578817,25.1063633 L8.0678417,25.5557475 C7.67942676,25.1557551 7.31833113,24.7301076 6.9869959,24.2816825 L17.1566619,24.2816825 C17.2720331,24.2816825 17.3485424,24.2610351 17.3485424,24.1602273 L17.3485424,20.5578663 C17.3485424,20.4534148 17.2720331,20.4364111 17.1566619,20.4364111 L14.1812999,20.4364111 L14.1812999,18.1518389 L17.3983342,18.1518389 C18.3887512,18.1617616 19.2261927,18.8877178 19.3766463,19.8667862 C19.5041618,20.3683962 19.784696,22.000754 19.9765765,22.5230113 C20.1672425,23.1096399 20.9481233,24.280468 21.7763669,24.280468 L27.0263629,24.280468 C26.67429,24.7525153 26.2891563,25.198973 25.8738655,25.6164751 L23.7352481,25.1549454 Z M29.3823638,15.6559346 C29.453896,16.3740268 29.4628356,17.0969809 29.4090814,17.8166225 L28.1327118,17.8166225 C28.0051963,17.8166225 27.9529756,17.9004266 27.9529756,18.0255255 L27.9529756,18.6121541 C27.9529756,19.9918851 27.1745238,20.2930939 26.4956554,20.3696107 C25.8459335,20.4424838 25.1257745,20.0975511 25.0383352,19.7003926 C24.9433458,18.3053059 24.189762,17.038837 23.0090169,16.2899307 C24.2598834,15.4956138 25.5593272,14.3235711 25.5593272,12.75437 C25.5055418,11.4011125 24.7706359,10.1670083 23.6065182,9.47507979 C22.8063979,8.95699257 21.8861568,8.65412005 20.9347645,8.59574418 L7.7302292,8.59574418 C9.55499643,6.5540249 12.0022093,5.17127664 14.6925764,4.66181044 L16.2494801,6.29416825 C16.4181002,6.47128592 16.6502563,6.57402766 16.8947248,6.57972413 C17.1391933,6.5854206 17.3758821,6.49360361 17.5525672,6.32453205 L19.2940649,4.65816679 C22.8880841,5.33218378 26.003731,7.55310383 27.8133158,10.7309265 L26.6207421,13.4235882 C26.4170262,13.8884888 26.6262991,14.4306996 27.0895134,14.6381401 L29.3823638,15.6559346 Z M32.355297,15.6996585 L32.3152207,15.2830672 L33.543013,14.1377447 C33.6581541,14.0173287 33.7074119,13.8483599 33.6750184,13.6849263 C33.642625,13.5214927 33.5326432,13.3840922 33.3802789,13.3167076 L31.8160885,12.730079 L31.6946452,12.3244186 L32.6734786,10.9641205 C32.7624571,10.8236669 32.7775941,10.6487157 32.714062,10.4950641 C32.6505299,10.3414125 32.5162628,10.2282492 32.3540826,10.1916654 L30.6988097,9.9220349 L30.4996426,9.55038201 L31.195513,8.02369022 C31.2568647,7.86851548 31.2382526,7.69311925 31.1457015,7.55427908 C31.0531504,7.41543892 30.8984205,7.33079669 30.7315994,7.32775196 L29.0520379,7.38605045 L28.7800048,7.06540874 L29.1661947,5.42940727 C29.1947558,5.26542367 29.1417179,5.09779939 29.0240295,4.98009953 C28.9063411,4.86239967 28.7387332,4.8093566 28.5747656,4.83792047 L26.9377092,5.22050434 L26.6146699,4.95451746 L26.6741772,3.27722123 C26.6702491,3.11094072 26.5856976,2.95696117 26.4475049,2.864421 C26.3093121,2.77188082 26.1347485,2.75234499 25.9795212,2.81204783 L24.4529783,3.5079861 L24.0813617,3.30879958 L23.8117574,1.65336528 C23.7751772,1.49116925 23.6620249,1.35688908 23.5083883,1.29335077 C23.3547517,1.22981245 23.1798176,1.24495094 23.0393777,1.33393812 L21.6779978,2.31286699 L21.2735914,2.19141179 L20.6870201,0.62099613 C20.6197735,0.468879095 20.4827507,0.358976432 20.3196757,0.326358262 C20.1566008,0.293740092 19.987852,0.342482467 19.8672775,0.457031617 L18.7220667,1.68615818 L18.305516,1.64607797 L17.4214084,0.216550333 C17.325614,0.0807611545 17.1698109,0 17.0036433,0 C16.8374757,0 16.6816727,0.0807611545 16.5858782,0.216550333 L15.7017706,1.64607797 L15.2852199,1.68615818 L14.1400091,0.457031617 C14.0194346,0.342482467 13.8506858,0.293740092 13.6876109,0.326358262 C13.5245359,0.358976432 13.3875131,0.468879095 13.3202665,0.62099613 L12.7288374,2.18412448 L12.3244311,2.30557967 L10.9642656,1.33393812 C10.8238257,1.24495094 10.6488916,1.22981245 10.495255,1.29335077 C10.3416184,1.35688908 10.2284661,1.49116925 10.1918859,1.65336528 L9.92228164,3.30879958 L9.55066499,3.5079861 L8.02290767,2.81204783 C7.86768268,2.75174125 7.69279528,2.77101333 7.55442348,2.86367341 C7.41605169,2.95633349 7.33162067,3.11071289 7.32825171,3.27722123 L7.38654452,4.95694656 L7.06350521,5.22050434 L5.4276633,4.83670592 C5.2636957,4.80814205 5.09608777,4.86118512 4.97839939,4.97888498 C4.86071101,5.09658484 4.80767311,5.26420912 4.8362342,5.42819272 L5.21999518,7.06540874 L4.95524868,7.387265 L3.2769016,7.32896651 C3.11055149,7.33330637 2.95666417,7.41815124 2.86419125,7.55651195 C2.77171834,7.69487265 2.75217335,7.8695223 2.81177357,8.02490477 L3.50764396,9.55159656 L3.30847687,9.92324946 L1.65320403,10.19288 C1.49102381,10.2294638 1.35675674,10.3426271 1.29322463,10.4962787 C1.22969251,10.6499302 1.24482952,10.8248814 1.33380802,10.965335 L2.31264141,12.3256332 L2.19119806,12.7312935 L0.620935564,13.3179221 C0.468571278,13.3853067 0.358589467,13.5227072 0.326196022,13.6861408 C0.293802577,13.8495745 0.343060301,14.0185433 0.458201476,14.1389592 L1.68599373,15.2842817 L1.64591743,15.700873 L0.216529212,16.5850669 C0.0807532778,16.6808707 5.39316808e-16,16.8366889 0,17.0028727 C-5.39316808e-16,17.1690566 0.0807532778,17.3248748 0.216529212,17.4206786 L1.64591743,18.3048724 L1.68599373,18.7214637 L0.458201476,19.8667862 C0.343590489,19.9872027 0.294670006,20.155827 0.32703843,20.3188928 C0.359406853,20.4819586 0.469023016,20.6191073 0.620935564,20.6866088 L2.19119806,21.2732374 L2.31264141,21.6788977 L1.33380802,23.0404104 C1.24483089,23.1810336 1.22984546,23.3561642 1.29363835,23.5098621 C1.35743124,23.6635599 1.49202151,23.7765964 1.65441846,23.8128655 L3.3096913,24.082496 L3.5088584,24.4553634 L2.81298801,25.9820552 C2.75278747,26.1374355 2.77207012,26.3124067 2.86466192,26.4509453 C2.95725371,26.5894838 3.11153837,26.6742092 3.27811603,26.6779935 L4.95767754,26.619695 L5.22363848,26.9427658 L4.83866306,28.5799818 C4.80996314,28.743892 4.86300765,28.9114993 4.98078266,29.029044 C5.09855767,29.1465886 5.2662573,29.1992937 5.43009217,29.1702541 L7.06350521,28.782812 L7.38654452,29.0475843 L7.32703728,30.7260951 C7.33079476,30.8923872 7.41538475,31.0464036 7.55369547,31.138781 C7.69200618,31.2311583 7.86666532,31.2502937 8.02169323,31.190054 L9.54823613,30.4941157 L9.91985277,30.6933022 L10.189457,32.347522 C10.2257225,32.5099348 10.338748,32.6445382 10.4924309,32.7083373 C10.6461137,32.7721364 10.8212272,32.7571495 10.9618367,32.6681637 L12.3220022,31.6880203 L12.727623,31.8094755 L13.3141944,33.3786766 C13.3816893,33.5306039 13.5188246,33.6402308 13.6818745,33.6726024 C13.8449244,33.704974 14.0135322,33.6560487 14.133937,33.5414265 L15.2791477,32.3135145 L15.6956984,32.3548093 L16.579806,33.7843369 C16.6759323,33.9196318 16.8316151,34 16.9975711,34 C17.1635272,34 17.3192099,33.9196318 17.4153363,33.7843369 L18.2994438,32.3548093 L18.7159945,32.3135145 L19.8612053,33.5414265 C19.98161,33.6560487 20.1502179,33.704974 20.3132678,33.6726024 C20.4763177,33.6402308 20.613453,33.5306039 20.6809479,33.3786766 L21.2675193,31.8094755 L21.6731401,31.6880203 L23.0333056,32.6681637 C23.1739151,32.7571495 23.3490285,32.7721364 23.5027114,32.7083373 C23.6563943,32.6445382 23.7694197,32.5099348 23.8056853,32.347522 L24.0752895,30.6933022 L24.4469061,30.4941157 L25.973449,31.190054 C26.1284769,31.2502937 26.3031361,31.2311583 26.4414468,31.138781 C26.5797575,31.0464036 26.6643475,30.8923872 26.668105,30.7260951 L26.6098122,29.0451552 L26.9316371,28.7803829 L28.567479,29.1653959 C28.7313138,29.1944355 28.8990135,29.1417304 29.0167885,29.0241858 C29.1345635,28.9066411 29.187608,28.7390338 29.1589081,28.5751236 L28.7800048,26.9403367 L29.0447513,26.6172659 L30.7243128,26.6755644 C30.8906741,26.6713931 31.0445967,26.5865094 31.1369063,26.4480315 C31.2292159,26.3095536 31.2483615,26.1348097 31.1882264,25.9796261 L30.492356,24.4529343 L30.6915231,24.0800669 L32.346796,23.8104364 C32.5093092,23.7743554 32.6439915,23.6612316 32.7076058,23.5073811 C32.7712202,23.3535307 32.7557613,23.1783142 32.666192,23.0379813 L31.6873586,21.6776832 L31.8088019,21.2720228 L33.3790644,20.6853942 C33.5314015,20.6183208 33.6414324,20.4811299 33.6738427,20.3178531 C33.706253,20.1545764 33.6569653,19.9857547 33.5417985,19.8655717 L32.3140063,18.7202492 L32.3540826,18.3036579 L33.7834708,17.419464 C33.9192467,17.3236602 34,17.167842 34,17.0016582 C34,16.8354743 33.9192467,16.6796561 33.7834708,16.5838523 L32.355297,15.6996585 Z" id="Shape"></path>
        </g>
    </g>
</svg>