<?xml version="1.0" encoding="UTF-8"?>
<svg width="130px" height="35px" viewBox="0 0 130 35" version="1.1" xmlns="http://www.w3.org/2000/svg" xmlns:xlink="http://www.w3.org/1999/xlink">
    <!-- Generator: Sketch 52.4 (67378) - http://www.bohemiancoding.com/sketch -->
    <title>scalal</title>
    <desc>Created with Sketch.</desc>
    <defs>
        <linearGradient x1="0.170678187%" y1="49.648832%" x2="99.8186667%" y2="49.648832%" id="linearGradient-1">
            <stop stop-color="#656565" offset="0%"></stop>
            <stop stop-color="#010101" offset="100%"></stop>
        </linearGradient>
        <linearGradient x1="0.170678187%" y1="49.820384%" x2="99.8186667%" y2="49.820384%" id="linearGradient-2">
            <stop stop-color="#656565" offset="0%"></stop>
            <stop stop-color="#010101" offset="100%"></stop>
        </linearGradient>
        <linearGradient x1="0.170678187%" y1="50.052384%" x2="99.8186667%" y2="50.052384%" id="linearGradient-3">
            <stop stop-color="#9F1C20" offset="0%"></stop>
            <stop stop-color="#ED2224" offset="100%"></stop>
        </linearGradient>
        <linearGradient x1="0.170678187%" y1="50.259232%" x2="99.8186667%" y2="50.259232%" id="linearGradient-4">
            <stop stop-color="#9F1C20" offset="0%"></stop>
            <stop stop-color="#ED2224" offset="100%"></stop>
        </linearGradient>
        <linearGradient x1="0.170678187%" y1="50.44%" x2="99.8186667%" y2="50.44%" id="linearGradient-5">
            <stop stop-color="#9F1C20" offset="0%"></stop>
            <stop stop-color="#ED2224" offset="100%"></stop>
        </linearGradient>
    </defs>
    <g id="scalal" stroke="none" stroke-width="1" fill="none" fill-rule="evenodd">
        <g id="scala-lang-ar21" transform="translate(22.000000, 0.000000)">
            <g id="g857" transform="translate(1.093970, 0.622050)">
                <path d="M0.103864307,12.9830384 C0.103864307,12.9830384 19.5784219,14.9304942 19.5784219,18.1762538 L19.5784219,10.3864307 C19.5784219,10.3864307 19.5784219,7.14067112 0.103864307,5.19321536 L0.103864307,12.9830384 Z" id="path7" fill="url(#linearGradient-1)"></path>
                <path d="M0.103864307,23.3694691 C0.103864307,23.3694691 19.5784219,25.3169249 19.5784219,28.5626845 L19.5784219,20.7728615 C19.5784219,20.7728615 19.5784219,17.5271019 0.103864307,15.5796461 L0.103864307,23.3694691 Z" id="path14" fill="url(#linearGradient-2)"></path>
                <path d="M19.5784219,0 L19.5784219,7.78982305 C19.5784219,7.78982305 19.5784219,11.0355826 0.103864307,12.9830384 L0.103864307,5.19321536 C0.103864307,5.19321536 19.5784219,3.2457596 19.5784219,0" id="path21" fill="url(#linearGradient-3)"></path>
                <path d="M0.103864307,15.5796461 C0.103864307,15.5796461 19.5784219,13.6321903 19.5784219,10.3864307 L19.5784219,18.1762538 C19.5784219,18.1762538 19.5784219,21.4220134 0.103864307,23.3694691 L0.103864307,15.5796461 Z" id="path28" fill="url(#linearGradient-4)"></path>
                <path d="M0.103864307,33.7558999 L0.103864307,25.9660768 C0.103864307,25.9660768 19.5784219,24.0186211 19.5784219,20.7728615 L19.5784219,28.5626845 C19.5784219,28.5626845 19.5784219,31.8084441 0.103864307,33.7558999" id="path35" fill="url(#linearGradient-5)"></path>
            </g>
            <path d="M28.1905756,25.3609181 C28.4734265,24.1463131 28.7230052,22.9982622 28.98922,21.8335735 C29.9376094,22.0997883 30.8194471,22.4824719 31.7511996,22.5989416 C32.6829457,22.7154105 33.6479761,22.6488564 34.5797278,22.5490268 C35.1121589,22.499112 35.4782025,22.0831506 35.5447526,21.5008055 C35.5946912,20.9517382 35.3118156,20.5357775 34.8459426,20.302839 C34.263599,20.0033488 33.6646114,19.7704102 33.0656318,19.4875577 C32.2669875,19.1215134 31.4517062,18.8053823 30.7029751,18.3561453 C29.155606,17.441033 28.2238543,16.1099599 28.3236838,14.2298195 C28.4235118,12.3330399 29.3885429,10.9853291 31.0191046,10.1201307 C32.5831162,9.28821011 34.2802352,9.10518716 36.0106328,9.30484864 C37.1254059,9.43795682 38.2069019,9.78736341 39.3549488,10.0702159 C39.005547,11.3846497 38.7060544,12.5160628 38.4232027,13.5975589 C37.441537,13.2980678 36.5097845,12.998576 35.5447526,12.8987449 C34.8792156,12.8321892 34.1471278,12.8987449 33.5148687,13.0984064 C32.5664801,13.3978982 32.4500088,14.446118 33.2819318,14.995186 C33.8642761,15.3778689 34.5630861,15.6108066 35.2119869,15.8936599 C36.0605468,16.292982 36.9590206,16.5924731 37.7410233,17.0916256 C40.9189596,19.0549585 40.7359383,23.5972458 37.441537,25.3775558 C35.7277739,26.292669 33.880913,26.5089682 31.9841358,26.3425845 C30.719612,26.209478 29.455093,25.943264 28.1905756,25.3609181 Z M64.1794656,26.076369 L60.3193562,26.076369 C60.2195195,25.7269624 60.1196907,25.4274722 60.0032259,25.0115107 C59.0381955,25.9765386 57.9234201,26.3425838 56.6589027,26.3425838 C54.7122043,26.3425838 53.2813009,25.3110033 52.7987925,23.5639688 C52.2996344,21.7337432 53.0816426,19.8868791 54.7288468,18.9218527 C56.0765584,18.1398453 57.5573765,17.9568232 59.0714734,17.8403543 C59.2544947,17.8237214 59.4208807,17.8237214 59.6039029,17.8070805 C59.5207143,17.1082673 59.1213881,16.7921369 58.2728283,16.7255828 C56.8918388,16.609114 55.6106789,16.9086058 54.2796098,17.5741427 C54.0133951,16.642391 53.7638164,15.7439172 53.464323,14.6956966 C54.5291829,14.3962064 55.5274927,13.9802441 56.5757093,13.8637752 C57.85687,13.7306686 59.187939,13.7306686 60.4524628,13.9469647 C62.5655401,14.3296483 63.8633361,16.0267665 63.9631656,18.3228675 C64.0297213,19.9201545 64.0131043,21.5340809 64.0131043,23.1313695 C64.0297293,24.0963967 64.0297293,25.2943624 64.1794903,26.0763682 L64.1794656,26.076369 Z M59.7702826,20.5856931 C58.9550013,20.4858627 58.2395496,20.6189749 57.5573765,21.001653 C57.0914971,21.2678685 56.8252879,21.7171047 56.9417536,22.2328957 C57.024951,22.5656638 57.2412462,22.9816244 57.5240979,23.1480081 C58.3892939,23.6471614 59.6039029,23.0149015 59.7370103,22.0165965 C59.8201997,21.5507202 59.7702523,21.0848456 59.7702523,20.5856931 L59.7702826,20.5856931 Z M84.7112563,26.0597305 L80.851154,26.0597305 C80.7513165,25.7103239 80.651495,25.4108336 80.5350245,24.9948722 C79.5700029,25.9599001 78.455229,26.3259452 77.1907029,26.3259452 C75.2440109,26.3259452 73.8131075,25.2943648 73.3305903,23.5473302 C72.8314346,21.7171047 73.613446,19.8702406 75.2606518,18.9052134 C76.6083506,18.1232068 78.0891688,17.9401847 79.6032688,17.8237158 C79.786287,17.8070828 79.9526802,17.8070828 80.1356984,17.790434 C80.0524779,17.09162 79.6531836,16.7754897 78.8046245,16.7089364 C77.4236438,16.5924667 76.1424768,16.8919585 74.8114109,17.5574963 C74.5451961,16.6257445 74.2956222,15.7272707 73.9961256,14.6790501 C75.0609927,14.3795591 76.0592961,13.9635984 77.1075143,13.8471295 C78.3886734,13.7140214 79.7197472,13.7140214 80.9842495,13.9303174 C83.0973347,14.313001 84.3951347,16.0101192 84.4949722,18.3062202 C84.5614722,19.9035081 84.5448472,21.5174336 84.5448472,23.1147223 C84.5448472,24.0963888 84.5614722,25.2777159 84.7112245,26.0597217 L84.7112563,26.0597305 Z M80.3020836,20.5690538 C79.4868063,20.4692234 78.7713586,20.6023356 78.0891688,20.9850144 C77.6233029,21.25123 77.3570881,21.7004661 77.4735586,22.2162572 C77.556779,22.549026 77.7730472,22.9649867 78.0559029,23.1313703 C78.9211029,23.630522 80.1356984,22.9982622 80.2688018,21.999958 C80.3520222,21.5507202 80.3020518,21.068207 80.3020518,20.5690538 L80.3020836,20.5690538 Z M50.852094,17.3578403 C49.2548046,17.0417108 47.7573495,16.7422198 46.6425764,18.2396757 C45.9437672,19.1880667 45.9437672,20.8685456 46.6425764,21.7836588 C47.7739864,23.297754 49.337998,22.9982622 50.9852022,22.7154105 C51.134945,23.6970769 51.417803,25.9266239 51.417803,25.9266239 C51.417803,25.9266239 51.401178,25.9266239 51.2181384,25.9931795 C48.2232226,26.8084624 44.7125205,26.2261173 43.1318728,24.3792532 C41.5013055,22.4824743 41.3016472,20.2529274 42.0337351,17.940187 C42.7491868,15.6607253 44.4629419,14.3962056 46.7257682,13.9136916 C48.1733086,13.597562 49.6374914,13.6308383 51.0683948,14.0301605 C51.2015022,14.0634343 51.4344392,14.1299908 51.4344392,14.1299908 C51.4344392,14.1299908 51.0351154,16.3595377 50.852094,17.3578427 L50.852094,17.3578403 Z M66.8416086,8.60603545 L71.134322,8.60603545 L71.134322,26.0430927 L66.8416086,26.0430927 L66.8416086,8.60603545 Z" id="path37" fill="#231F20" fill-rule="nonzero"></path>
        </g>
    </g>
</svg>